<svg xmlns="http://www.w3.org/2000/svg" width="351.283" height="66" viewBox="0 0 351.283 66"><g transform="translate(-113 -34)"><g transform="translate(113 34)" fill="none"><path d="M33,0A33,33,0,1,1,0,33,33,33,0,0,1,33,0Z" stroke="none"/><path d="M 33 2 C 28.81414031982422 2 24.75455856323242 2.819358825683594 20.93400955200195 4.435310363769531 C 17.24279022216797 5.996570587158203 13.92731857299805 8.232059478759766 11.07968902587891 11.07968902587891 C 8.232059478759766 13.92731857299805 5.996570587158203 17.24279022216797 4.435310363769531 20.93400955200195 C 2.819358825683594 24.75455856323242 2 28.81414031982422 2 33 C 2 37.18585205078125 2.819358825683594 41.24543762207031 4.435310363769531 45.06597900390625 C 5.996570587158203 48.7572021484375 8.232059478759766 52.07268142700195 11.07968902587891 54.92031097412109 C 13.92731857299805 57.76794052124023 17.24279022216797 60.0034294128418 20.93400955200195 61.56468963623047 C 24.75455856323242 63.18064117431641 28.81414031982422 64 33 64 C 37.18585205078125 64 41.24543762207031 63.18064117431641 45.06597900390625 61.56468963623047 C 48.7572021484375 60.0034294128418 52.07268142700195 57.76794052124023 54.92031097412109 54.92031097412109 C 57.76794052124023 52.07268142700195 60.0034294128418 48.7572021484375 61.56468963623047 45.06597900390625 C 63.18064117431641 41.24543762207031 64 37.18585205078125 64 33 C 64 28.81414031982422 63.18064117431641 24.75455856323242 61.56468963623047 20.93400955200195 C 60.0034294128418 17.24279022216797 57.76794052124023 13.92731857299805 54.92031097412109 11.07968902587891 C 52.07268142700195 8.232059478759766 48.7572021484375 5.996570587158203 45.06597900390625 4.435310363769531 C 41.24543762207031 2.819358825683594 37.18585205078125 2 33 2 M 33 0 C 51.22539138793945 0 66 14.77460098266602 66 33 C 66 51.22539138793945 51.22539138793945 66 33 66 C 14.77460098266602 66 0 51.22539138793945 0 33 C 0 14.77460098266602 14.77460098266602 0 33 0 Z" stroke="none" fill="#011627"/></g><path d="M.82-2.473a2.865,2.865,0,0,0,.82.521,2.331,2.331,0,0,0,.879.17A2.034,2.034,0,0,0,4.541-3.187,17.467,17.467,0,0,0,5.109-8.73a48.048,48.048,0,0,0-.2-4.863,8.822,8.822,0,0,0-.609-2.73,6.416,6.416,0,0,1,1.014-.416,2.907,2.907,0,0,1,.826-.135.905.905,0,0,1,.873.416,5.184,5.184,0,0,1,.229,1.986q0,4.2-.07,6.357T6.938-4.723A6.807,6.807,0,0,1,5.4-.961,4.009,4.009,0,0,1,2.309.34,2.879,2.879,0,0,1,.732-.041a1.14,1.14,0,0,1-.592-.99A1.627,1.627,0,0,1,.3-1.723,3.233,3.233,0,0,1,.82-2.473ZM11.086-16.324A5.047,5.047,0,0,1,12.1-16.77a3.334,3.334,0,0,1,.979-.152.931.931,0,0,1,.85.357,3.031,3.031,0,0,1,.229,1.447q0,.48-.129,2.859T13.9-7.992q0,3.5,1,4.957a3.769,3.769,0,0,0,3.352,1.453,4.4,4.4,0,0,0,3.973-1.875q1.23-1.875,1.23-6.07a25.075,25.075,0,0,0-.3-4.289,5.4,5.4,0,0,0-.9-2.4,5.267,5.267,0,0,1,.943-.527,2.072,2.072,0,0,1,.779-.176,1.249,1.249,0,0,1,1.248.955,17.157,17.157,0,0,1,.334,4.377q0,6.434-1.764,9.193T17.977.363q-3.34,0-4.816-1.723T11.684-7.031q0-.879.064-2.5t.064-2.355a16.984,16.984,0,0,0-.176-2.678A5.621,5.621,0,0,0,11.086-16.324Zm36.867.047a10.869,10.869,0,0,0-.311,1.564,14.278,14.278,0,0,0-.1,1.752,45.973,45.973,0,0,0,.48,6.926A24.088,24.088,0,0,0,49.441-.6a5.583,5.583,0,0,1-1.055.451A3.36,3.36,0,0,1,47.426,0a1.263,1.263,0,0,1-.773-.211,1.219,1.219,0,0,1-.41-.68q-.07-.281-.258-4.283t-.527-7.811Q43.008-8.367,40.3-2.871q-.492,1.02-.68,1.383a2.064,2.064,0,0,1-.439.633.739.739,0,0,1-.5.188q-.562,0-1.16-1.289-.141-.293-.223-.457Q35.4-6.27,34.1-8.842t-2.15-4.1q-.2,2.965-.381,7.271a30.471,30.471,0,0,1-.416,4.975.986.986,0,0,1-.352.527A1.085,1.085,0,0,1,30.164,0a2.431,2.431,0,0,1-.744-.146A7.266,7.266,0,0,1,28.395-.6a24.77,24.77,0,0,0,1.395-5.437,46.646,46.646,0,0,0,.48-7,13.781,13.781,0,0,0-.1-1.717,12.606,12.606,0,0,0-.287-1.529,3.164,3.164,0,0,1,.709-.492,1.584,1.584,0,0,1,.686-.152q1.137,0,3.645,5.191.949,1.957,1.535,3.117,1.324,2.625,1.811,3.469t.639.844q.316,0,3.2-5.859l1.91-3.855a10.662,10.662,0,0,1,1.365-2.238,1.636,1.636,0,0,1,1.178-.668,1.533,1.533,0,0,1,.662.152A3.629,3.629,0,0,1,47.953-16.277Z" transform="translate(121 76)" fill="#011627"/><path d="M1.5-4.533a5.252,5.252,0,0,0,1.5.956,4.273,4.273,0,0,0,1.611.312A3.729,3.729,0,0,0,8.325-5.844Q9.367-8.422,9.367-16.006A88.087,88.087,0,0,0,9-24.922a16.173,16.173,0,0,0-1.117-5.006,11.762,11.762,0,0,1,1.858-.763,5.33,5.33,0,0,1,1.515-.247,1.66,1.66,0,0,1,1.6.763,9.5,9.5,0,0,1,.419,3.642q0,7.691-.129,11.655t-.43,6.22A12.48,12.48,0,0,1,9.9-1.762,7.35,7.35,0,0,1,4.232.623a5.278,5.278,0,0,1-2.89-.7A2.091,2.091,0,0,1,.258-1.891a2.982,2.982,0,0,1,.3-1.268A5.927,5.927,0,0,1,1.5-4.533ZM31.646-23.762l-1.031,2.406q-2.471,5.8-3.631,8.508h9.045q-1.1-2.943-2.191-5.661T31.646-23.762ZM37.189-9.9H25.566a55.268,55.268,0,0,0-2.4,5.865,12.368,12.368,0,0,0-.677,3.652l-.021.344q-.494.064-.72.075t-.419.011a3.406,3.406,0,0,1-2.127-.569,1.983,1.983,0,0,1-.73-1.665q0-1.1,4.168-9.475t7.283-15.576a11.773,11.773,0,0,0-.741-.956q-.4-.462-.849-.935a7.317,7.317,0,0,1,1.45-1.439,2.313,2.313,0,0,1,1.321-.451A2.355,2.355,0,0,1,32.9-29.831a20.466,20.466,0,0,1,2.03,4.05q1.01,2.471,2.771,6.9Q43.678-3.867,46.02-1.633a6.34,6.34,0,0,1-1.5,1.289,2.9,2.9,0,0,1-1.439.387q-2.17,0-4.92-7.391Q37.533-8.98,37.189-9.9Zm17.682-7.047q5.543-5.457,8.39-8.83A22.3,22.3,0,0,0,66.924-31.2a7.6,7.6,0,0,1,2.428,1,1.636,1.636,0,0,1,.795,1.343q0,1.268-6.6,7.5-2.836,2.664-4.49,4.275.859.924,2.492,2.621Q72.488-3.029,74.658-2.9A5.9,5.9,0,0,1,73.595-.462a2.006,2.006,0,0,1-1.558.849,3.237,3.237,0,0,1-1.751-.612,16.212,16.212,0,0,1-2.524-2.288q-.258-.279-4.555-5.081t-8.336-8.6v3.137q0,5.027.258,7.724a14.6,14.6,0,0,0,.838,4.071,10.5,10.5,0,0,1-1.815.956A4.21,4.21,0,0,1,52.637,0a1.667,1.667,0,0,1-1.558-.827A5.489,5.489,0,0,1,50.6-3.48q0-1.053.2-5.908t.2-8.658a72.568,72.568,0,0,0-.312-7.874,11.863,11.863,0,0,0-1.021-3.964,12.329,12.329,0,0,1,1.9-.816A5.327,5.327,0,0,1,53.2-30.98a1.82,1.82,0,0,1,1.579.612,4.081,4.081,0,0,1,.44,2.245q0,.322-.064,1.633Q54.893-21.463,54.871-16.951ZM89.977-29.928a9.253,9.253,0,0,1,1.858-.816,6.113,6.113,0,0,1,1.794-.279,1.707,1.707,0,0,1,1.558.655,5.557,5.557,0,0,1,.419,2.653q0,.881-.236,5.242t-.236,7.82q0,6.424,1.826,9.088T103.1-2.9q5.027,0,7.283-3.437t2.256-11.129a45.971,45.971,0,0,0-.548-7.863,9.908,9.908,0,0,0-1.644-4.4,9.656,9.656,0,0,1,1.729-.967,3.8,3.8,0,0,1,1.429-.322,2.29,2.29,0,0,1,2.288,1.751q.612,1.751.612,8.024,0,11.795-3.233,16.854T102.609.666q-6.123,0-8.83-3.158t-2.707-10.4q0-1.611.118-4.576t.118-4.318a31.138,31.138,0,0,0-.322-4.909A10.305,10.305,0,0,0,89.977-29.928Zm80.523.086a19.927,19.927,0,0,0-.569,2.868,26.175,26.175,0,0,0-.183,3.212,84.286,84.286,0,0,0,.881,12.7,44.161,44.161,0,0,0,2.6,9.969,10.236,10.236,0,0,1-1.934.827A6.16,6.16,0,0,1,169.533,0a2.316,2.316,0,0,1-1.418-.387,2.235,2.235,0,0,1-.752-1.246q-.129-.516-.473-7.853T165.924-23.8q-4.49,8.465-9.453,18.541-.9,1.869-1.246,2.535a3.785,3.785,0,0,1-.806,1.16,1.355,1.355,0,0,1-.913.344q-1.031,0-2.127-2.363-.258-.537-.408-.838-3.48-7.068-5.876-11.784t-3.942-7.509q-.365,5.436-.7,13.331t-.763,9.12a1.807,1.807,0,0,1-.645.967,1.99,1.99,0,0,1-1.16.3,4.457,4.457,0,0,1-1.364-.269,13.321,13.321,0,0,1-1.88-.827,45.411,45.411,0,0,0,2.557-9.969,85.518,85.518,0,0,0,.881-12.826,25.265,25.265,0,0,0-.183-3.147,23.111,23.111,0,0,0-.526-2.8,5.8,5.8,0,0,1,1.3-.9,2.9,2.9,0,0,1,1.257-.279q2.084,0,6.682,9.518,1.74,3.588,2.814,5.715,2.428,4.813,3.319,6.359t1.171,1.547q.58,0,5.865-10.742,2.191-4.426,3.5-7.068a19.547,19.547,0,0,1,2.5-4.1,3,3,0,0,1,2.159-1.225,2.811,2.811,0,0,1,1.214.279A6.653,6.653,0,0,1,170.5-29.842Zm18.67,6.08-1.031,2.406q-2.471,5.8-3.631,8.508h9.045q-1.1-2.943-2.191-5.661T189.17-23.762ZM194.713-9.9H183.09a55.27,55.27,0,0,0-2.4,5.865,12.368,12.368,0,0,0-.677,3.652L180-.043q-.494.064-.72.075t-.419.011a3.406,3.406,0,0,1-2.127-.569A1.983,1.983,0,0,1,176-2.191q0-1.1,4.168-9.475t7.283-15.576a11.775,11.775,0,0,0-.741-.956q-.4-.462-.849-.935a7.317,7.317,0,0,1,1.45-1.439,2.313,2.313,0,0,1,1.321-.451,2.355,2.355,0,0,1,1.794,1.192,20.466,20.466,0,0,1,2.03,4.05q1.01,2.471,2.771,6.9Q201.2-3.867,203.543-1.633a6.34,6.34,0,0,1-1.5,1.289A2.9,2.9,0,0,1,200.6.043q-2.17,0-4.92-7.391Q195.057-8.98,194.713-9.9Zm46.943-19.937a19.927,19.927,0,0,0-.569,2.868,26.175,26.175,0,0,0-.183,3.212,84.286,84.286,0,0,0,.881,12.7,44.161,44.161,0,0,0,2.6,9.969,10.236,10.236,0,0,1-1.934.827A6.16,6.16,0,0,1,240.689,0a2.316,2.316,0,0,1-1.418-.387,2.235,2.235,0,0,1-.752-1.246q-.129-.516-.473-7.853T237.08-23.8q-4.49,8.465-9.453,18.541-.9,1.869-1.246,2.535a3.785,3.785,0,0,1-.806,1.16,1.355,1.355,0,0,1-.913.344q-1.031,0-2.127-2.363-.258-.537-.408-.838-3.48-7.068-5.876-11.784t-3.942-7.509q-.365,5.436-.7,13.331t-.763,9.12A1.807,1.807,0,0,1,210.2-.3a1.99,1.99,0,0,1-1.16.3,4.457,4.457,0,0,1-1.364-.269A13.321,13.321,0,0,1,205.8-1.1a45.411,45.411,0,0,0,2.557-9.969,85.518,85.518,0,0,0,.881-12.826,25.265,25.265,0,0,0-.183-3.147,23.111,23.111,0,0,0-.526-2.8,5.8,5.8,0,0,1,1.3-.9,2.9,2.9,0,0,1,1.257-.279q2.084,0,6.682,9.518,1.74,3.588,2.814,5.715,2.428,4.813,3.319,6.359t1.171,1.547q.58,0,5.865-10.742,2.191-4.426,3.5-7.068a19.547,19.547,0,0,1,2.5-4.1,3,3,0,0,1,2.159-1.225,2.811,2.811,0,0,1,1.214.279A6.653,6.653,0,0,1,241.656-29.842Zm15.275,16.908a113.125,113.125,0,0,0-6.875-10.936q-2.75-3.7-4.082-3.8a7.331,7.331,0,0,1,1.289-2.7,2.29,2.29,0,0,1,1.783-.913,1.78,1.78,0,0,1,1.01.3,3.929,3.929,0,0,1,.967,1.053q.215.3,1.182,2,3.48,6.188,7,11.645,4.361-6.295,6.1-9.4t1.74-4.458a1.811,1.811,0,0,0-.032-.354,1.15,1.15,0,0,0-.1-.29,11.045,11.045,0,0,1,1.386-.279,9.378,9.378,0,0,1,1.214-.086,1.932,1.932,0,0,1,1.3.4,1.433,1.433,0,0,1,.462,1.149q0,1.117-5.221,8.615-3.2,4.6-5.178,7.52,0,.516-.021,1.515t-.021,1.45a47.129,47.129,0,0,0,.3,5.983,10.69,10.69,0,0,0,.945,3.47,10.7,10.7,0,0,1-1.912.795,6.035,6.035,0,0,1-1.7.258,1.766,1.766,0,0,1-1.525-.591,3.729,3.729,0,0,1-.43-2.095q0-.3.161-3.685T256.932-12.934Z" transform="translate(193 84)" fill="#011627"/></g></svg>