<svg xmlns="http://www.w3.org/2000/svg" width="66" height="66" viewBox="0 0 66 66"><g transform="translate(-113 -34)"><g transform="translate(113 34)" fill="none"><path d="M33,0A33,33,0,1,1,0,33,33,33,0,0,1,33,0Z" stroke="none"/><path d="M 33 2 C 28.81414031982422 2 24.75455856323242 2.819358825683594 20.93400955200195 4.435310363769531 C 17.24279022216797 5.996570587158203 13.92731857299805 8.232059478759766 11.07968902587891 11.07968902587891 C 8.232059478759766 13.92731857299805 5.996570587158203 17.24279022216797 4.435310363769531 20.93400955200195 C 2.819358825683594 24.75455856323242 2 28.81414031982422 2 33 C 2 37.18585205078125 2.819358825683594 41.24543762207031 4.435310363769531 45.06597900390625 C 5.996570587158203 48.7572021484375 8.232059478759766 52.07268142700195 11.07968902587891 54.92031097412109 C 13.92731857299805 57.76794052124023 17.24279022216797 60.0034294128418 20.93400955200195 61.56468963623047 C 24.75455856323242 63.18064117431641 28.81414031982422 64 33 64 C 37.18585205078125 64 41.24543762207031 63.18064117431641 45.06597900390625 61.56468963623047 C 48.7572021484375 60.0034294128418 52.07268142700195 57.76794052124023 54.92031097412109 54.92031097412109 C 57.76794052124023 52.07268142700195 60.0034294128418 48.7572021484375 61.56468963623047 45.06597900390625 C 63.18064117431641 41.24543762207031 64 37.18585205078125 64 33 C 64 28.81414031982422 63.18064117431641 24.75455856323242 61.56468963623047 20.93400955200195 C 60.0034294128418 17.24279022216797 57.76794052124023 13.92731857299805 54.92031097412109 11.07968902587891 C 52.07268142700195 8.232059478759766 48.7572021484375 5.996570587158203 45.06597900390625 4.435310363769531 C 41.24543762207031 2.819358825683594 37.18585205078125 2 33 2 M 33 0 C 51.22539138793945 0 66 14.77460098266602 66 33 C 66 51.22539138793945 51.22539138793945 66 33 66 C 14.77460098266602 66 0 51.22539138793945 0 33 C 0 14.77460098266602 14.77460098266602 0 33 0 Z" stroke="none" fill="#011627"/></g><path d="M.82-2.473a2.865,2.865,0,0,0,.82.521,2.331,2.331,0,0,0,.879.17A2.034,2.034,0,0,0,4.541-3.187,17.467,17.467,0,0,0,5.109-8.73a48.048,48.048,0,0,0-.2-4.863,8.822,8.822,0,0,0-.609-2.73,6.416,6.416,0,0,1,1.014-.416,2.907,2.907,0,0,1,.826-.135.905.905,0,0,1,.873.416,5.184,5.184,0,0,1,.229,1.986q0,4.2-.07,6.357T6.938-4.723A6.807,6.807,0,0,1,5.4-.961,4.009,4.009,0,0,1,2.309.34,2.879,2.879,0,0,1,.732-.041a1.14,1.14,0,0,1-.592-.99A1.627,1.627,0,0,1,.3-1.723,3.233,3.233,0,0,1,.82-2.473ZM11.086-16.324A5.047,5.047,0,0,1,12.1-16.77a3.334,3.334,0,0,1,.979-.152.931.931,0,0,1,.85.357,3.031,3.031,0,0,1,.229,1.447q0,.48-.129,2.859T13.9-7.992q0,3.5,1,4.957a3.769,3.769,0,0,0,3.352,1.453,4.4,4.4,0,0,0,3.973-1.875q1.23-1.875,1.23-6.07a25.075,25.075,0,0,0-.3-4.289,5.4,5.4,0,0,0-.9-2.4,5.267,5.267,0,0,1,.943-.527,2.072,2.072,0,0,1,.779-.176,1.249,1.249,0,0,1,1.248.955,17.157,17.157,0,0,1,.334,4.377q0,6.434-1.764,9.193T17.977.363q-3.34,0-4.816-1.723T11.684-7.031q0-.879.064-2.5t.064-2.355a16.984,16.984,0,0,0-.176-2.678A5.621,5.621,0,0,0,11.086-16.324Zm36.867.047a10.869,10.869,0,0,0-.311,1.564,14.278,14.278,0,0,0-.1,1.752,45.973,45.973,0,0,0,.48,6.926A24.088,24.088,0,0,0,49.441-.6a5.583,5.583,0,0,1-1.055.451A3.36,3.36,0,0,1,47.426,0a1.263,1.263,0,0,1-.773-.211,1.219,1.219,0,0,1-.41-.68q-.07-.281-.258-4.283t-.527-7.811Q43.008-8.367,40.3-2.871q-.492,1.02-.68,1.383a2.064,2.064,0,0,1-.439.633.739.739,0,0,1-.5.188q-.562,0-1.16-1.289-.141-.293-.223-.457Q35.4-6.27,34.1-8.842t-2.15-4.1q-.2,2.965-.381,7.271a30.471,30.471,0,0,1-.416,4.975.986.986,0,0,1-.352.527A1.085,1.085,0,0,1,30.164,0a2.431,2.431,0,0,1-.744-.146A7.266,7.266,0,0,1,28.395-.6a24.77,24.77,0,0,0,1.395-5.437,46.646,46.646,0,0,0,.48-7,13.781,13.781,0,0,0-.1-1.717,12.606,12.606,0,0,0-.287-1.529,3.164,3.164,0,0,1,.709-.492,1.584,1.584,0,0,1,.686-.152q1.137,0,3.645,5.191.949,1.957,1.535,3.117,1.324,2.625,1.811,3.469t.639.844q.316,0,3.2-5.859l1.91-3.855a10.662,10.662,0,0,1,1.365-2.238,1.636,1.636,0,0,1,1.178-.668,1.533,1.533,0,0,1,.662.152A3.629,3.629,0,0,1,47.953-16.277Z" transform="translate(121 76)" fill="#011627"/></g></svg>