<?xml version="1.0" encoding="UTF-8" standalone="no"?>
<svg
   xmlns:dc="http://purl.org/dc/elements/1.1/"
   xmlns:cc="http://creativecommons.org/ns#"
   xmlns:rdf="http://www.w3.org/1999/02/22-rdf-syntax-ns#"
   xmlns:svg="http://www.w3.org/2000/svg"
   xmlns="http://www.w3.org/2000/svg"
   xmlns:sodipodi="http://sodipodi.sourceforge.net/DTD/sodipodi-0.dtd"
   xmlns:inkscape="http://www.inkscape.org/namespaces/inkscape"
   inkscape:version="1.0 (4035a4fb49, 2020-05-01)"
   sodipodi:docname="jum_logo.svg"
   id="svg18"
   version="1.1"
   viewBox="0 0 65 65"
   height="65"
   width="65">
  <metadata
     id="metadata22">
    <rdf:RDF>
      <cc:Work
         rdf:about="">
        <dc:format>image/svg+xml</dc:format>
        <dc:type
           rdf:resource="http://purl.org/dc/dcmitype/StillImage" />
      </cc:Work>
    </rdf:RDF>
  </metadata>
  <sodipodi:namedview
     inkscape:current-layer="g16"
     inkscape:window-maximized="1"
     inkscape:window-y="-9"
     inkscape:window-x="-9"
     inkscape:cy="32.5"
     inkscape:cx="32.5"
     inkscape:zoom="11.307692"
     showgrid="false"
     id="namedview20"
     inkscape:window-height="1001"
     inkscape:window-width="1920"
     inkscape:pageshadow="2"
     inkscape:pageopacity="0"
     guidetolerance="10"
     gridtolerance="10"
     objecttolerance="10"
     borderopacity="1"
     bordercolor="#666666"
     pagecolor="#ffffff" />
  <defs
     id="defs4">
    <style
       id="style2">.a{fill:#fff;stroke:#707070;stroke-width:3px;}.b{fill:#707070;font-size:36px;font-family:RispaRegular, Rispa;}.c{stroke:none;}.d{fill:none;}</style>
  </defs>
  <g
     id="g16"
     transform="translate(-45 -14)">
    <g
       id="g10"
       transform="translate(45 14)"
       class="a">
      <circle
         id="circle6"
         r="32.5"
         cy="32.5"
         cx="32.5"
         class="c" />
      <circle
         id="circle8"
         r="31"
         cy="32.5"
         cx="32.5"
         class="d" />
    </g>
    <g
       class="b"
       style="font-size:36px;font-family:RispaRegular, Rispa;fill:#707070"
       id="text14"
       transform="translate(59 64)"
       aria-label="jum">
      <path
         id="path847"
         d="m 3.096,-36 v 1.908 H 5.22 v 22.932 c 0,4.752 -0.576,9.504 -1.368,9.504 -0.756,0 -1.332,-4.752 -1.332,-9.504 H 0.612 c 0,0.036 0,2.7 0.288,5.364 0.324,2.844 0.936,6.12 2.952,6.12 2.052,0 2.664,-3.276 2.988,-6.12 0.288,-2.664 0.288,-5.328 0.288,-5.364 V -36 Z" />
      <path
         id="path849"
         d="m 17.721,-36 v 24.084 c 0,6.84 -0.396,10.332 -1.224,10.332 -1.26,0 -1.26,-7.524 -1.26,-10.332 V -36 h -1.908 v 24.084 c 0,7.596 0.144,12.24 3.168,12.24 2.952,0 3.132,-4.644 3.132,-12.24 V -36 Z" />
      <path
         id="path851"
         d="m 26.058937,0 h 1.944001 l -0.072,-16.848 2.376,17.172 2.304,-17.208 -0.036,16.884 h 1.907999 v -36 h -1.511999 l -2.700001,25.092 -2.664,-25.092 h -1.548 z" />
    </g>
  </g>
</svg>
